<?xml version="1.0" encoding="UTF-8"?>
<svg id="Layer_1" data-name="Layer 1" xmlns="http://www.w3.org/2000/svg" version="1.1" viewBox="0 0 200 200">
  <defs>
    <style>
      .cls-1 {
        fill: #fff;
        stroke-width: 0px;
      }
    </style>
  </defs>
  <path class="cls-1" d="M99.06,199.16c-.9-.8-1.77-1.66-2.71-2.4-8.7-6.89-17.72-13.42-25.48-21.41-5.57-5.73-10.86-11.75-16.23-17.68-1.54-1.7-3.45-3.15-4.07-5.55-.06-.24-.54-.4-.85-.53-2.22-.91-4.48-1.74-6.67-2.71-4.39-1.93-8.7-4.07-13.15-5.86-2.07-.83-2.72-2.16-3.01-4.16-.62-4.25-1.24-8.51-2.2-12.69-.66-2.9-1.85-5.68-2.89-8.48-.38-1.01-.21-1.62.59-2.34,2.84-2.55,5.62-5.18,8.37-7.83.26-.25.31-.91.23-1.32-1.01-4.96-2.14-9.9-3.06-14.88-.5-2.71-.87-5.48-.96-8.23-.29-8.95-.41-17.91-.61-26.87-.04-1.73-.09-3.46-.21-5.18-.08-1.13.41-1.57,1.45-1.89,6.55-1.96,13.09-4,19.63-6.01.17-.05.32-.15.61-.28-4.9-14.21-1.64-27.37,5.2-40.26,1.1,1.64,2.09,3.16,3.12,4.64,5.3,7.55,11.89,13.74,19.66,18.7,1.18.76,2.36,1.57,3.38,2.53,1.29,1.22,1.95,2.84,2.12,4.62.1,1.08.6,1.54,1.68,1.32.22-.04.45-.05.67-.1,3.67-.69,3.64-.69,3.95-4.46.2-2.46.89-4.58,2.65-6.61,3.54-4.08,6.59-8.57,9.93-12.84,2.46-3.15,5.03-6.2,7.7-9.46,1.37,2.05,2.66,3.96,3.92,5.88,3.87,5.89,7.75,11.76,10.39,18.36,1.09,2.73,1.81,5.5,1.76,8.46-.02.94.12,1.89.17,2.56,10.09,2.62,20.02,5.12,29.89,7.8,5.73,1.56,11.38,3.43,17.08,5.1.79.23,1.01.61,1.01,1.33,0,3,.03,6.01-.01,9.01-.09,5.64-.17,11.29-.34,16.93-.25,8.05-1.06,16.04-3.1,23.86-.42,1.62-.82,3.25-1.08,4.9-.07.44.24,1.17.61,1.42,3.08,2.08,5.97,4.49,9.68,5.46.2.05.39.16.83.34-4.83,4.71-10.49,6.35-17.33,5.86.35.96.49,1.85.95,2.5,2.52,3.54,5.68,6.24,10.44,7.11-.61.51-.98.87-1.38,1.16-4.49,3.21-9.48,5.14-15.01,4.77-2.21-.15-3.18.68-4.23,2.24-7.8,11.59-16.76,22.24-26.74,31.99-7.55,7.38-15.54,14.28-24.4,20.09-1.16.76-1.93.76-3.1-.11-10.19-7.54-19.76-15.8-28.36-25.12-2.96-3.2-5.66-6.65-8.38-10.07-1.37-1.73-2.68-3.12-5.14-2.01-.75.34-1.66.36-2.57.54,4.45,5.15,8.76,10.18,13.13,15.17,5.99,6.83,12.96,12.61,19.97,18.33,3.94,3.22,8.05,6.24,12.07,9.36.71.55,1.28.55,2.03-.01,4.73-3.54,9.62-6.88,14.22-10.58,4.14-3.33,8.13-6.88,11.89-10.64,4.83-4.81,9.49-9.8,13.97-14.94,3.95-4.52,7.58-9.31,11.29-14.03.85-1.09,1.53-1.44,2.78-.59,1.33.9,1.43,1.32.26,2.64-1.75,1.97-3.49,3.96-5.22,5.95-5.58,6.43-10.88,13.12-16.79,19.22-7.31,7.55-15,14.74-23.68,20.77-3.31,2.3-6.5,4.79-9.74,7.2h-.55ZM86.44,130.21c-.65.18-1.1.26-1.51.43-4.59,1.96-9.18,3.92-13.74,5.94-.45.2-.82.69-1.09,1.13-1.63,2.68-3.18,5.4-4.83,8.07-1.31,2.12-1.35,2.1.18,4.07.03.04.05.07.08.11,4.47,5.09,8.66,10.48,13.48,15.21,6.1,5.98,12.73,11.41,19.12,17.09,1.01.9,1.81.95,2.9.01,4.5-3.84,9.2-7.46,13.59-11.42,13.81-12.44,25.92-26.33,35.84-42.13,3.76,2.02,11.98,1.88,15.31-.45-6.14-3.81-8.85-9.91-11.2-16.3.83.08,1.54.25,2.16.58,3.11,1.62,6.39,2.32,9.89,1.91,1.83-.21,3.59-.61,5.47-1.69-.65-.37-1.04-.56-1.39-.81-2.56-1.79-5.33-3.35-7.61-5.45-1.98-1.82-3.46-4.2-5.07-6.4-4.04-5.55-8.03-11.13-12.02-16.72-.4-.55-.64-1.21-.99-1.89,3.04-.45,5.86-.86,9.02-1.32-7.31-5.77-12.21-13.14-18.7-18.81,2.12-1.77,4.07-3.39,6-5-2.45-1.16-4.64-2.09-6.74-3.21-4.72-2.52-9.4-5.11-14.07-7.72-.32-.18-.62-.76-.59-1.12.14-1.62.53-3.23.61-4.86.17-3.62.81-7.32-.44-10.83-2.73-7.64-7.13-14.39-11.76-20.99-.45-.65-.89-.7-1.42-.11-1.03,1.15-2.15,2.23-3.09,3.46-4.16,5.46-8.29,10.95-12.36,16.48-.5.68-.73,1.65-.83,2.52-.21,1.94-.26,3.9-.38,5.84-.12,1.82-.13,1.81-2.01,1.86-.63.02-1.27.08-1.9.16-4.36.54-8.72,1.3-13.37-.39.21.95.2,1.67.53,2.18,1,1.56,2.09,3.08,3.23,4.55.53.69.49,1.08-.1,1.71-.73.78-1.54,1.66-1.83,2.64-.79,2.62-1.31,5.32-1.94,7.99-.24,1-.48,2-.71,3-.14,0-.27-.01-.41-.02-.17-.35-.38-.69-.51-1.06-1.62-4.55-3.1-9.16-4.88-13.66-1.63-4.13-3.53-8.16-5.39-12.2-1.19-2.58-2.51-5.1-3.8-7.64-.23-.45-.62-.81-1.17-1.52-.76,4.48-.8,8.58.26,12.53,1.02,3.79,2.58,7.43,3.91,11.17-7.72-6.9-8.3-22.48-4.95-28.75.93,1.01,1.81,2.05,2.77,3.02,3.81,3.86,7.74,7.6,12.44,10.36,1.32.78,2.3,1.66,2.96,3.02.2.41.74.8,1.2.91.87.22,1.79.23,2.69.32.86.09,1.36-.29,1.21-1.17-.36-2.15-.96-4.18-3.12-5.28-.73-.37-1.44-.78-2.12-1.23-7.3-4.75-13.43-10.69-18.39-17.86-.35-.5-.78-.94-1.23-1.48-.22.3-.35.43-.42.59-1.91,4.44-3.47,8.99-4.06,13.81-.52,4.2-.83,8.42.13,12.6,1.44,6.22,4.12,11.83,8.4,16.61,3.24,3.62,6.53,7.18,9.82,10.79-.56,1.19-1.1,2.49-1.77,3.72-.29.52-.79.99-1.3,1.31-4.04,2.54-8.12,5-12.14,7.58-.39.25-.69,1.11-.59,1.6.5,2.44,1.17,4.84,1.72,7.26.09.37.03.91-.19,1.2-2.99,3.95-5.94,7.94-9.06,11.79-5.46,6.74-11.75,12.68-18.08,18.58-.77.72-.83,1.27-.48,2.22,1.05,2.85,2.14,5.71,2.85,8.66.66,2.72.91,5.55,1.22,8.35.28,2.48,1.38,4.13,3.75,5.17,2.29,1.01,4.48,2.2,7.01,2.55.35.05.7.19,1.01.36,2.2,1.17,4.35,2.46,6.61,3.5.91.42,2.11.53,3.12.38,2.56-.37,5.07-1.1,7.63-1.42,1.93-.24,3.14-1.15,4.05-2.77,1.5-2.65,3-5.29,4.64-7.86.56-.88,1.39-1.77,2.31-2.19,4.92-2.24,9.88-4.37,14.87-6.45,1.35-.56,2.85-.78,4.4-1.19,3.41,13.07-.57,24.13-7.74,34.51-2.81-1.49-2.89-1.55-1.33-3.93,2.4-3.67,4.37-7.53,5.76-11.68,1.56-4.68,1.41-9.46.69-14.48ZM35.21,102.23c.16-.03.33-.07.49-.1,1.17-1.26,2.39-2.47,3.51-3.78,3.29-3.83,6.56-7.68,9.76-11.57.42-.51.67-1.39.6-2.05-.21-2.03-.75-4.02-.93-6.05-.36-3.98-.46-4.35,2.77-6.53.94-.64,1.96-1.16,2.92-1.77,2.42-1.53,4.85-3.05,7.22-4.65,1.64-1.11,1.76-1.9.47-3.38-1.64-1.89-3.5-3.59-5.08-5.52-2.12-2.59-4.21-5.24-6.03-8.04-.65-1-.98-1.36-2.12-.97-5.52,1.84-11.06,3.63-16.61,5.37-.74.23-.9.54-.89,1.23.03,2.37.04,4.73,0,7.1-.16,12.15.28,24.26,2.75,36.21.31,1.52.78,3,1.17,4.5ZM123.84,40.3c-.69,2.36-.71,2.39,1.21,3.54,3.04,1.82,6.17,3.5,9.16,5.4,3.53,2.24,7.33,3.54,11.46,4.02.61.07,1.18.48,1.77.74-.3.62-.56,1.27-.92,1.85-.18.3-.55.47-.8.73-1.69,1.76-3.37,3.53-5.24,5.49,6.12,6.28,12.28,12.6,18.58,19.06-1.82,2.17-4.97,2.18-7.51,3.41.01.16-.02.33.04.43,3.24,5.16,6.4,10.37,10.65,14.79.35.36.83.59,1.35.95.21-.58.42-.94.48-1.33.66-4.44,1.43-8.87,1.9-13.33.4-3.74.54-7.52.62-11.29.15-7,.18-14.01.21-21.01,0-.36-.4-.93-.72-1.04-5.42-1.68-10.85-3.34-16.29-4.94-5.09-1.49-10.2-2.87-15.3-4.34-3.53-1.01-7.04-2.08-10.65-3.15Z"/>
  <path class="cls-1" d="M57.87,170.74c-2.35,0-4.43,0-6.51,0-1.13,0-1.38-.89-1.69-1.66-.18-.45-.18-.97-.28-1.61,2.25,0,4.45-.04,6.65.04.35.01.8.51,1,.89.34.67.52,1.42.84,2.33Z"/>
  <path class="cls-1" d="M145.06,170.74c-.82,0-1.66.1-2.44-.05-.35-.07-.87-.66-.86-1,.05-1.5.94-2.24,2.42-2.21,1.14.02,2.27.03,3.41.08.7.03,1.54-.11,1.55,1.02.01,1.12-.67,2.09-1.62,2.15-.82.05-1.64,0-2.45,0Z"/>
  <path class="cls-1" d="M44.43,160.46c2-.13,3.81-.22,5.61-.36.87-.07,1.45.09,1.67,1.07.15.64.55,1.22.9,1.95-2.56,0-5.02.03-7.47-.04-.25,0-.59-.6-.68-.97-.12-.51-.03-1.06-.03-1.64Z"/>
  <path class="cls-1" d="M146.54,163.37c.46-1.03.74-1.79,1.13-2.49.14-.25.54-.49.83-.5,1.85-.04,3.71-.02,5.71-.02,0,.65.05,1.22-.01,1.78-.08.81-.45,1.28-1.41,1.25-1.99-.07-3.97-.02-6.24-.02Z"/>
  <path class="cls-1" d="M56.84,78.77c3.11-2.01,5.94-3.89,8.84-5.68.62-.38,1.46-.38,2.15-.66.35-.14.7-.47.88-.8,1.09-1.98,2.09-4.01,3.21-5.98.24-.42.77-.78,1.25-.95,5.21-1.9,10.39-3.9,15.98-4.44.09,0,.17-.06.26-.07,1.13-.13,2.45-.66,3.32-.25.73.34.96,1.78,1.37,2.75,1.13,2.71,2.6,5.12,5.43,6.38.29.13.57.29.86.4.21.08.43.1.97.22-.18-.87-.27-1.59-.49-2.28-1.53-4.89-3.26-9.72-4.59-14.66-1.87-6.92-1.8-14.04-1.48-21.14.02-.43.17-.92.41-1.27,3.06-4.4,6.11-8.8,9.24-13.15.76-1.06,1.75-1.97,2.77-3.09.62.83,1.2,1.56,1.72,2.32,3.17,4.6,5.35,9.7,7.34,14.88.42,1.09.24,2.42.24,3.64,0,7.83-2.26,15.14-5.25,22.26-1.37,3.26-2.9,6.45-4.32,9.69-.48,1.1-.85,2.24-1.3,3.43,3.21.22,5.82-1.89,7.62-6.17,1.91,1.99,3.84,3.76,5.5,5.76,5.86,7.1,10.55,14.91,13.83,23.54,1.57,4.13,1.94,8.39,1.28,12.74-.07.44-.07.89-.11,1.37,1.41-.42,2.69-1.85,3.77-4.26.5,2.15,1.03,4.06,1.4,6.01,1.13,5.92,1.86,11.95,3.45,17.75.87,3.2-.44,5.23-1.96,7.33-3.42,4.74-6.91,9.44-10.63,13.94-3.37,4.08-7,7.94-10.65,11.77-2.73,2.87-5.67,5.53-8.53,8.28-.12.11-.3.15-.7.35.23-.52.35-.82.49-1.12,3.2-7.09,6.62-14.1,9.5-21.32,1.45-3.65,2.04-7.67,2.78-11.57,1.21-6.39,2.14-12.81,1.99-19.35-.16-6.61-.48-13.25-3.52-19.27-2.45-4.85-5.33-9.48-8.18-14.11-.92-1.51-1.17-1.35-2.56-.27-.75.58-.85,1.1-.35,1.96,3.02,5.14,4.62,10.75,4.24,16.68-.63,9.89-5.76,17.41-16.39,19.27-3.73.65-7.31-.24-10.91-1.16-2.56-.66-5.18-1.09-7.79-1.51-.52-.08-1.12.34-1.69.53.24.56.37,1.21.75,1.65.93,1.08,1.97,2.07,2.99,3.13-3.88,1.85-7.78,3.71-11.63,5.54-3.82-12.42-10.44-21.96-24.38-24.53,2.03-2.29,3.98-4.26,5.66-6.43,2.69-3.48,5.21-7.1,7.8-10.67.49-.68.45-1.17,0-2.02-.86-1.66-1.28-3.55-1.89-5.38ZM104.07,65.96c.5-.92.86-1.44,1.07-2.02,2.15-5.73,4.57-11.37,6.34-17.22,1.96-6.49,3.02-13.16-.2-19.66-1.3-2.62-2.71-5.18-4.27-8.14-.61.77-.95,1.14-1.22,1.56-2.15,3.26-4.33,6.5-6.4,9.8-.63,1.01-1.34,2.19-1.36,3.31-.06,4.39-.33,8.85.35,13.15.88,5.52,2.55,10.91,3.99,16.33.25.94,1.01,1.74,1.71,2.89ZM62.05,102.94c.1.09.2.19.3.28.78-.45,1.59-.85,2.34-1.35,4-2.67,8.75-4.46,10.85-9.32.45-1.05,1.15-1.09,2.19-.89,2.63.51,5.28.99,7.94,1.22,2.99.25,5.92-1.82,6.97-4.59.45-1.19,1.05-2.34,1.33-3.57.42-1.86,1.62-2.62,3.33-3.09,2.07-.57,4.08-1.35,6.52-2.17-1.48-.7-2.57-1.22-3.67-1.72-1.74-.79-3.58-1.23-5.44-.61-4.39,1.46-8.82,2.86-13.1,4.6-3.89,1.58-7.73,2.98-12.01,2.38-.25-.04-.52.05-.92.09.34,1.44,1.42,2.2,2.42,2.89,1.23.85,1.28,1.65.46,2.78-2.02,2.8-3.98,5.64-6.01,8.44-1.13,1.57-2.34,3.08-3.51,4.62Z"/>
  <path class="cls-1" d="M120.13,102.88c0,1.34-.02,2.55,0,3.76.05,2.58.23,5.16.17,7.74-.05,2.43-.24,4.88-.54,7.29-.44,3.57-.81,7.17-1.61,10.67-1.16,5.03-2.53,10.02-4.07,14.94-2.69,8.57-7.01,16.46-10.6,24.66-.99,2.25-2.46,3.9-4.17,5.2-4.04-3.52-8.04-7-12.01-10.46,1.99-3.47,4.07-7.19,6.25-10.84.61-1.03,1.43-1.99,2.32-2.8,3.79-3.47,6.39-7.81,8.88-12.18,2.84-4.96,5.5-10.04,7.89-15.23,1.78-3.86,3.08-7.96,4.41-12.01,1.15-3.49,2.04-7.07,3.08-10.73Z"/>
  <path class="cls-1" d="M64.24,125.55c-1.39.53-2.53,1.12-3.75,1.4-2.79.64-4.55,2.42-5.98,4.75-1.58,2.56-3.67,4.67-6.17,6.37-1.62,1.1-3.41,1.59-5.27,1.22-2.19-.44-4.35-1.12-6.48-1.82-1.5-.49-2.33-1.66-2.57-3.22-.46-2.96-.78-5.94-1.4-8.86-.48-2.28-1.34-4.49-2.05-6.79,3.67-3.59,7.46-7.31,11.29-10.99.3-.28.92-.52,1.27-.41,2.68.85,5.33,1.77,7.98,2.7,3.93,1.38,6.71,4.09,8.72,7.64,1.48,2.6,2.88,5.24,4.4,8.01ZM50.67,116.3c-3.88,1.62-6.47,5.01-10.94,5.02.76,3.17,1.45,6.04,2.14,8.92.11.08.21.16.32.24,1.26-3.94,4.39-5.39,7.9-6.31.19-2.55.38-5.05.58-7.87Z"/>
  <path class="cls-1" d="M156.14,125.33c-1.98-.91-3.93-1.91-5.96-2.7-2.95-1.14-3.77-3.62-4.42-6.34-1.76-7.36-4.11-14.51-7.34-21.38-1.45-3.09-2.44-6.39-3.94-9.45-1.48-3.01-3.35-5.83-5.04-8.73-.22-.38-.44-.75-.67-1.13.07-.11.15-.23.22-.34,1.43.66,2.9,1.24,4.27,2,1.21.67,2.4,1.44,3.42,2.36,1.64,1.49,3.34,3,4.65,4.76,3.16,4.27,6.12,8.71,9.15,13.08.15.22.28.46.54.9-3.43-.35-5.58-3.16-8.56-3.95l-.42.36c.6,1.5,1.11,3.05,1.83,4.49,2.42,4.85,5.03,9.59,6.58,14.84,1.19,4.02,2.9,7.84,5.95,10.89-.09.12-.17.24-.26.36Z"/>
  <path class="cls-1" d="M119.01,49.43c4.34,2.39,8.51,4.68,13.04,7.17-1.61.17-2.87.35-4.14.43-1.27.08-2.55.06-3.82.08-.97.02-1.14.5-.84,1.35.69,1.95,2.58,2.35,4.11,3.21,1.37.78,2.92,1.36,4.06,2.4,3.79,3.47,7.42,7.11,11.12,10.69.15.15.27.33.54.68-.61-.05-1.03,0-1.39-.13-2.58-.88-5.17-1.71-7.7-2.71-2.98-1.18-5.93-2.44-8.82-3.83-1.11-.53-2.05-1.46-2.97-2.31-1.24-1.15-2.39-2.41-3.54-3.58,1.43-.7,2.61-1.28,3.79-1.86-.05-.19-.1-.38-.15-.57-2.23-.27-4.46-.53-6.75-.8,1.16-3.43,2.28-6.73,3.46-10.2Z"/>
  <path class="cls-1" d="M85.6,46.33c.57-2.31-1.9-2.46-2.79-4.2,2.29,0,4.34-.03,6.38.04.29,0,.77.48.82.79.58,3.92,1.1,7.84,1.66,11.97-1.57.24-3.45.53-5.33.8-2.31.34-4.62.63-6.93,1-1.29.2-1.55-.05-1.12-1.32.49-1.44.92-2.91,1.52-4.31,1.01-2.37,2.72-3.72,5.79-4.76Z"/>
  <path class="cls-1" d="M51.41,142.07c3.25-2.46,5.45-5.78,8.12-8.66,1.24-1.34,3.14-2.07,4.74-3.08.13.14.26.29.39.43-1.25,2.25-2.78,4.4-3.69,6.78-1.32,3.43-3.96,4.11-7.09,4.26-.82.04-1.64.18-2.46.27Z"/>
  <path class="cls-1" d="M78.73,140.61c1.32-.26,2.47-.53,3.65-.71.86-.13,1.45.19,1.37,1.18-.08.94-.08,2.25-1.39,2.01-2.16-.39-4.27-.54-6.43-.21-.85.13-1.31-.55-1.12-1.3.13-.54.66-1.36,1.06-1.38.99-.06,2,.26,2.88.41Z"/>
  <path class="cls-1" d="M75.76,147.49c1.17-.06,2.35-.17,3.52-.14.4.01.79.38,1.18.58-.31.49-.57,1.37-.94,1.42-2.24.3-4.5.49-6.75.51-.43,0-.94-.91-1.24-1.49-.06-.11.69-.88,1.12-.94,1.02-.15,2.07-.05,3.1-.05,0,.03,0,.07,0,.1Z"/>
  <path class="cls-1" d="M53.61,64.73s.02.06,0,.14c-.66,2.87-.78,2.91-3.66,2.78-2.45-.11-4.91-.07-7.37-.21-.61-.03-1.34-.33-1.75-.76-.68-.72-.23-1.92.66-1.93,4.04-.04,8.07-.02,12.12-.02Z"/>
  <path class="cls-1" d="M47.34,60.14c-.33.05-.55.12-.77.11-3.4-.1-6.79-.21-10.14-.32-.49-2.23,0-2.92,2-2.9,2.32.02,4.64.06,6.96.11,2.07.05,2.11.1,2.04,2.21,0,.22-.04.45-.08.79Z"/>
  <path class="cls-1" d="M44.68,72.75c-.02,1.39-.82,2.03-2.16,1.92-1.39-.11-2.81-.02-4.2-.12-.53-.04-1.17-.25-1.53-.6-.32-.31-.57-1.05-.41-1.4.17-.37.84-.66,1.32-.69,1.85-.15,3.7-.2,5.55-.25.78-.02,1.49.12,1.43,1.16Z"/>
  <path class="cls-1" d="M157.99,64.77c.36,2.8.36,2.79-2.4,2.75-2.64-.04-5.28-.02-7.91-.09-1.37-.04-1.91-.6-1.57-1.57.15-.43.69-1.03,1.06-1.03,3.57-.08,7.15-.05,10.82-.05Z"/>
  <path class="cls-1" d="M150.21,59.97c-.21-2.28,0-2.51,2.17-2.61,2.22-.1,4.44-.22,6.67-.34,2.41-.13,2.79.32,2.35,2.95h-11.19Z"/>
  <path class="cls-1" d="M156.51,73.65c.55-1.65,2.06-2.06,4.89-1.32-.15,1.64-2.94,2.39-4.89,1.32Z"/>
  <path class="cls-1" d="M89.95,83.68c-1.68,4.13-2.1,5-6.88,4.68-.18-.01-.37-.03-.54-.09-.56-.17-1.11-.36-1.66-.55.46-.43.86-1.03,1.4-1.26,1.92-.82,3.88-1.52,5.84-2.24.58-.21,1.19-.35,1.84-.54Z"/>
</svg>