<?xml version="1.0" encoding="UTF-8"?>
<svg id="Layer_1" data-name="Layer 1" xmlns="http://www.w3.org/2000/svg" version="1.1" viewBox="0 0 575 440">
  <defs>
    <style>
      .cls-1 {
        fill: #fff;
        stroke-width: 0px;
      }
    </style>
  </defs>
  <path class="cls-1" d="M574.98,208.45c-1.24.67-2.44,1.85-3.72,1.93-5.37.37-10.76.45-16.15.53-1.16.02-2.32-.42-3.54-.65.21-3.23,1.48-5.17,4.43-5.35,5.26-.31,10.53-.62,15.78-.45,1.1.04,2.13,2.15,3.19,3.31v.68Z"/>
  <path class="cls-1" d="M477.76,307.03c10.85,2.79,19.85,9.3,31.22,8.56-.44-.65-.59-1.11-.91-1.3-10.1-5.91-17.6-14.61-25.06-23.35-12.55-14.72-25.05-29.5-37.58-44.24-2.6-3.05-3.4-6.45-2.05-10.89,12.8,4.98,25.44,10.24,40.01,10.34-.68-.8-.87-1.21-1.19-1.37-10.4-5.16-18.04-13.64-26.27-21.47-13.28-12.64-26.98-24.84-40.29-37.46-3.79-3.6-7.11-7.79-10.1-12.09-1.17-1.69-.85-4.42-1.3-7.26,11.86,1.65,23.25,3.23,34.62,4.8-25.75-25.59-58.29-39.51-90.43-54.58,1.81-4.2,4.74-7.02,8.81-7.97,7.65-1.78,15.42-3.06,23.14-4.54.82-.16,1.65-.25,3.18-.48-1.25-.8-1.83-1.32-2.51-1.59-13.95-5.48-28.11-10.21-43.19-11.41-2.47-.2-3.36-1.14-3.06-3.6.28-2.23.28-4.49.3-6.74.04-4.22.69-4.88,4.98-4.06,6.08,1.16,12.25,2.08,18.13,3.91,8.46,2.64,16.72,5.93,25.01,9.08,12.89,4.9,25.46,10.94,40.19,10.4-12.42,13.87-29.35,14.18-45.54,16.44.03.39.05.79.08,1.18,2.87,1.17,5.7,2.46,8.62,3.5,15.03,5.33,28.22,13.76,40.72,23.53,12.48,9.76,24.78,19.84,38.92,27.24,2.96,1.55,6.19,2.56,9.75,4.01-12.76,10.13-27.59,7.87-41.93,7.92-.08.33-.15.67-.23,1,1.69,1.54,3.41,3.06,5.08,4.62,10.59,9.93,21.21,19.82,31.74,29.8,14.15,13.4,29.5,25,47.75,32.34.89.36,1.7.89,3.26,1.71-16.68,6.92-32.98,8.71-50.18,3.89,10.02,13.15,20.51,25.7,32.12,37.2,11.65,11.54,24.85,21.09,40.41,27.02.03.35.06.7.09,1.05-2.79,1.19-5.5,2.6-8.37,3.52-15.32,4.92-30.64,4.2-45.79-.66-5.32-1.71-10.3-4.5-12.03-10.37-.66-2.24-.11-4.85-.11-7.66Z"/>
  <path class="cls-1" d="M203.49,153.91c-7.04-.25-13.87-1.96-20.83-1.43l-.43,1.54c5.68,2.04,11.35,4.08,17.03,6.12-.07.29-.14.57-.21.86-7.71.09-15.25-3.31-23.01-2.08-.12.5-.24,1-.36,1.5,5.24,1.8,10.48,3.6,15.73,5.39-.04.26-.08.53-.12.79-4.13-.36-8.25-.75-12.38-1.07-2.24-.17-4.49-.38-6.72-.28-.96.04-1.89.84-2.83,1.29.76.85,1.37,2.02,2.32,2.49,1.59.78,3.43,1.04,5.12,1.66.99.37,1.87,1.01,2.79,1.54-.05.31-.1.63-.16.94-3.84,0-7.67-.03-11.51.01-1.57.02-3.16.09-4.71.34-.65.11-1.22.77-1.82,1.18.43.59.73,1.38,1.3,1.72,1.2.71,2.54,1.19,3.54,1.63-6.43,2.05-12.91,4.1-19.38,6.22-.19.06-.15.82-.22,1.28,1.34.5,2.6.96,3.86,1.43-.04.19-.09.37-.13.56-.54,0-1.14.15-1.62-.02-4.2-1.48-5.58-1.36-7.65,4.63-2.22,6.44-4.74,12.79-6.9,19.25-.41,1.22.25,2.79.43,4.37-1.67.17-3.76.39-6.5.67,2.31,3.16,4.16,5.7,6.49,8.89-3.53-1.68-6.2-2.95-8.87-4.22-.32.44-.63.87-.95,1.31,1.16,1.29,2.32,2.57,3.94,4.37-3.25-.45-6.09-.84-9.54-1.31,1.67,5.03,6.58,6.24,9.37,10.22-4.89-2.12-9.26-4.01-14.37-6.22,1,6.24,6.91,7.49,8.57,12.13-4.54-2.4-8.94-4.73-13.34-7.06-.39.51-.78,1.02-1.17,1.53,3.02,3.18,6.04,6.37,9.06,9.55-.1.12-.2.23-.3.35-4.13-2.11-8.26-4.22-12.51-6.4-.51,2.65-.53,2.67,4.82,7.36,2.28,1.99,4.67,3.85,6.49,6.35-5.84-2.25-9.78-7.63-16.74-7.82,4.63,4.86,9.27,9.73,13.9,14.59-.16.16-.31.32-.47.48-6.14-4.26-12.28-8.52-18.42-12.78l-1.12,1.14c.77,1,1.48,2.06,2.33,2.99,3.7,4.07,7.47,8.07,11.14,12.16.77.86,1.2,2.04,1.57,3.23-6.04-5.61-12.1-11.02-20.17-13.71.51,2.89,1.07,3.29,7.5,9.01,2.86,2.55,5.17,5.71,7.27,9.11-6.79-4.75-12.5-11.07-21.26-12.43,5.2,6.48,12.8,10.88,15.85,19.15-6.62-6.88-13.48-13.3-23.7-14.58,3.97,5.42,11.1,8.08,13.32,14.19-5.37-2.73-11.02-5.77-16.81-8.49-3.06-1.44-6.17-1.66-7.94,2.24-.21.46-.77.81-1.23,1.1-4.34,2.76-8.61,5.65-13.06,8.22-6.3,3.64-8.66,9.35-8.44,16.15.15,4.56,1.41,9.08,1.72,13.65.67,9.63,1.14,19.27,1.5,28.91.19,5.05,1.29,7.03,6.32,7.76,3.25.47,6.74.36,9.97-.29,10.19-2.02,18.58-7.38,26.43-14.11,12.2-10.45,26.41-16.21,42.72-15.06,4.8.34,9.49,2.17,14.23,3.32-.01.51-.02,1.01-.03,1.52-3.49.95-6.97,1.91-10.46,2.85-7.47,2.03-15.02,3.8-22.39,6.15-9.72,3.09-17.59,9.35-25.38,15.69-11.11,9.04-23.78,13.54-38.2,12.16-10.52-1-16.68-8.21-16.09-18.67.68-12.05.24-23.99-1.93-35.92-2.51-13.76,1.78-25.45,12.58-34.35,12.15-10.02,24.68-19.58,36.86-29.55,12.71-10.41,25.2-21.08,37.8-31.62,4.01-3.35,6.57-7.64,8.24-12.52,1.3-3.83,2.87-7.58,3.87-11.49,1.27-4.96,4.05-8.73,8.06-11.69,10.77-7.98,21.52-15.96,30.62-25.93.67-.74,2.19-1.05,3.29-1,7.87.31,15.72.91,23.59,1.12,4.64.12,6.65,4.73,10.85,5.69Z"/>
  <path class="cls-1" d="M268.02,115.17c-3.59-8.08-7.18-16.17-10.78-24.25l-1.07.31c-.05.81-.15,1.62-.14,2.43.28,14.64.85,29.36-4.07,43.43-2.13,6.1-5.39,11.82-8.43,17.56-.66,1.26-2.53,2.43-3.92,2.53-.79.06-2.1-2.01-2.57-3.34-4.23-11.78-11.32-21.96-18.05-32.33-7.92-12.22-14.61-24.98-18.37-39.15-2.49-9.37-2.15-18.93-1.77-28.43.66-16.64,4.36-32.68,10.72-48.09,3.04-7.37,4.93-7.75,9.69-1.25,12.18,16.62,23.28,33.91,32.03,52.63,1.9,4.06,4.29,7.89,6.57,11.76,5.4,9.15,9.92,18.69,11.95,29.18,1.07,5.53.79,11.14-.65,16.61-.38.14-.76.27-1.14.41ZM217.11,25.26c-.35.05-.7.1-1.04.15-.41,1.24-.98,2.46-1.22,3.74-1.09,5.82-2.38,11.62-3.07,17.49-2.29,19.36.1,37.97,10,55.11,4.95,8.57,10.33,16.89,15.53,25.32.77,1.25,1.59,2.47,2.69,4.16,5.57-20.74,5.92-40.75.36-60.81-4.63-16.7-13.5-31.15-23.25-45.15Z"/>
  <path class="cls-1" d="M553.53,440.29c-2.46-2.88-5.03-5.67-7.35-8.65-15.82-20.34-31.59-40.71-47.36-61.09-10.12-13.08-20.68-25.86-30.22-39.36-17.98-25.44-35.32-51.34-53.01-76.99-13.29-19.26-26.74-38.41-40.09-57.63-5.13-7.39-10.23-14.8-15.3-22.24-6.6-9.68-14.76-17.87-24.05-24.9-2.67-2.02-4.02-3.75-2.74-7.15.85-2.25,1.05-4.74,1.67-7.78,4.41,3.68,8.46,6.82,12.24,10.26,15.84,14.39,29.16,30.93,41.05,48.64,21.08,31.38,41.95,62.9,63.07,94.25,8.54,12.68,17.19,25.31,26.35,37.55,11.79,15.75,24.55,30.77,36.13,46.66,13.83,18.98,27.54,38.12,37.16,59.75,1.2,2.69,2.23,5.46,3.34,8.2-.3.16-.61.33-.91.49Z"/>
  <path class="cls-1" d="M181.2,321.28c-5.6-6.06-12.07-10.82-14.24-19.05,1.59.93,3.2,1.83,4.78,2.79,18.11,11.08,37.86,14.48,58.7,12.17,10.68-1.18,19.93-6.21,28.59-12.23,8.81-6.12,18.28-4.78,28.13-2.78-3.19,2.14-6.4,4.23-9.56,6.42-13.64,9.44-27.47,18.53-44.22,21.54-11.8,2.12-23.52,1.59-35.02-1.85-2.72-.81-4.63-.13-7.16,1.08-6.66,3.21-13.73,5.58-20.59,8.38-6.14,2.51-12.28,5.04-18.32,7.77-7.61,3.44-13.1,9.33-16.58,16.7-10.27,21.76-40.91,25.98-58.46,16.75-3.58-1.88-7.9-2.31-11.76-3.73-2.66-.97-5.4-2.14-7.59-3.87-2.1-1.66-1.32-3.73,1.16-4.57,1.89-.63,3.94-.74,5.92-1.12,10.47-2.03,19.83-6.22,27.95-13.35,3.58-3.15,7.91-5.47,12.02-7.97,1.38-.84,3.14-1.07,5.58-1-.74,1.58-1.2,3.37-2.25,4.7-5.72,7.2-12.61,13.12-20.44,17.93-.67.41-1.33.83-1.97,1.28-.16.11-.21.37-.53.98,1.54.77,3,1.85,4.63,2.25,13.18,3.26,28.03-.83,34.19-12.62,7.98-15.28,21.37-23.21,36.57-29.08,6.57-2.54,13.22-4.88,20.44-7.53Z"/>
  <path class="cls-1" d="M148.21,3.41c3.84,4.5,7.68,9.01,11.53,13.51,9.04,10.6,17.6,21.63,28.42,30.59.83.68,1.53,2.07,1.52,3.12-.05,8.99-.28,17.99-.48,26.98-.02.78-.17,1.55-.98,2.78-1.2-1.85-2.6-3.6-3.55-5.56-7.44-15.3-17.32-28.92-28.47-41.67-.28-.32-.67-.56-1.51-1.25-.19,1.76-.54,3.12-.46,4.46.62,10.42.7,20.93,2.19,31.23,1.34,9.28,5.91,17.63,10.77,25.66,2.33,3.85,2.31,3.82-1.36,6.16-1.6,1.02-3.09,2.23-5.38,3.89-2.52-3.75-5.26-7.37-7.54-11.26-9.46-16.18-12.4-33.89-11.33-52.32.56-9.63,1.86-19.23,3.07-28.81.31-2.46,1.59-4.79,2.42-7.19.38-.11.76-.21,1.14-.32Z"/>
  <path class="cls-1" d="M125.84,113.98c3.94.67,7.42,1.62,10.94,1.79,10.76.52,21.15-1.58,30.68-6.48,8.18-4.2,15.89-9.31,23.82-14,1.16-.68,2.37-1.26,3.62-1.92,1.83,3.86,3.72,7.53,5.24,11.34.29.73-.58,2.59-1.39,3-11.48,5.86-22.52,12.76-35.33,15.64-.17.04-.29.3-1.07,1.15,2.66.84,4.93,1.98,7.29,2.23,9.61,1.04,19.26,1.77,28.88,2.68,4.79.45,9.74.43,13.87,3.5,1.2.89,2.27,1.97,4.25,3.71-4.67.7-8.24,1.36-11.84,1.75-17.45,1.87-34.92,2.37-51.8-3.25-11.21-3.73-20.41-10.68-27.15-21.15Z"/>
  <path class="cls-1" d="M217.83,205.05c-2.92-1.77-5.79-3.63-8.77-5.29-17.82-9.94-31.96-8.62-47.83,4.35-1.73,1.42-3.63,2.64-5.5,3.88-.72.47-1.58.73-2.59,1.19-1.84-5.68-.19-10.67,3.15-14.6,16.43-19.34,49.09-15.46,60.98,7.06.49.93.78,1.96,1.16,2.94-.2.16-.39.31-.59.47Z"/>
  <path class="cls-1" d="M81.03,299.55c.13,4.4-1.42,9-5.26,12.28-1.99,1.69-4.88,2.45-7.48,3.22-.74.22-2.38-.78-2.76-1.61-.43-.94-.14-2.4.27-3.47,1.33-3.5,3.15-6.84,4.17-10.42.37-1.31-.67-4.14-1.64-4.44-1.59-.5-4.64-.12-5.33.99-2.08,3.33-3.27,7.21-4.93,10.82-.67,1.45-1.42,3.59-2.57,3.94-2.52.76-3.43-1.67-3.95-3.59-1.36-5.07-1.7-10.18.43-15.17,3.05-7.13,9.9-10.7,17.2-9.01,7.46,1.72,12.24,8.08,11.86,16.47Z"/>
  <path class="cls-1" d="M201.05,208.45c-2.05,2.18-4.31,4.28-6.2,6.67-4.47,5.65-10.63,7.99-17.37,9.39-6.23,1.3-12.45,2.66-18.68,3.98-.94.2-1.89.29-2.84.43-.23-.26-.45-.53-.68-.79,2.11-2.8,3.92-5.91,6.41-8.32,4.26-4.12,8.69-8.16,13.5-11.59,7.99-5.71,18.15-5.24,25.86.25Z"/>
  <path class="cls-1" d="M46.47,187.46c5.27,0,10.54.02,15.81,0,2.69-.01,3.93,1.56,4,3.97.07,2.48-1.49,3.55-3.9,3.57-10.54.06-21.08.12-31.63.22-2.77.03-4.51-1.54-5.31-3.85-.54-1.56,3.2-4.34,5.54-4.34,5.16-.02,10.33,0,15.49,0,0,.15,0,.29,0,.44Z"/>
  <path class="cls-1" d="M509.5,163.15c4.16,0,8.32.03,12.48-.01,2.85-.03,3.26,2.15,3.52,4.1.32,2.34-1.58,2.75-3.34,2.77-8.21.07-16.42.11-24.63.06-2.42-.02-4.17-1.32-4.23-3.86-.07-2.91,2-3.31,4.4-3.26,3.93.09,7.87.02,11.81.02,0,.06,0,.12,0,.19Z"/>
  <path class="cls-1" d="M537.89,187.15c2.7,0,5.4.06,8.1-.02,2.97-.09,6.11,2.17,5.69,4.62-.46,2.71-2.78,3.61-5.33,3.63-5.74.04-11.48.02-17.22.02-2.74,0-4.46-1.77-4.47-4.1-.02-2.34,1.52-4.08,4.46-3.88,2.91.2,5.85.04,8.78.04,0-.11,0-.21,0-.32Z"/>
  <path class="cls-1" d="M10.51,204.24c3.01.21,6.1.1,8.99.78,1.36.32,2.76,2.01,3.42,3.41.84,1.8-.23,2.99-2.33,2.86-5.69-.35-11.4-.57-17.06-1.21-1.26-.14-2.36-1.8-3.53-2.76,1.27-.84,2.43-2.1,3.82-2.43,2.15-.5,4.44-.35,6.68-.48,0-.06,0-.13.01-.19Z"/>
  <path class="cls-1" d="M94.54,170.03c-2.65,0-4.55,0-6.45,0-2.41,0-3.74-.89-3.69-3.59.04-2.56,1.05-3.62,3.62-3.58,3.69.05,7.39-.21,11.08-.2,2.33,0,4.55,2.39,4.21,4.6-.37,2.47-2.22,3.13-4.48,3-1.68-.09-3.35-.18-4.29-.23Z"/>
  <path class="cls-1" d="M64.42,163.04c1.68,0,3.38.13,5.04-.03,2.42-.24,3.32.96,3.89,3.12.73,2.78-.08,4.09-2.96,4.1-4.04.01-8.07.08-12.11.02-2.24-.03-3.61-1.23-3.51-3.57.09-2.22,1.18-3.56,3.59-3.51,2.02.04,4.04,0,6.06,0v-.14Z"/>
  <path class="cls-1" d="M506.86,195.12c-1.57-.1-3.17-.06-4.71-.34-2.23-.41-3.76-1.68-3.39-4.19.33-2.21,1.42-3.74,4.02-3.62,2.02.1,4.13-.32,6.05.15,1.64.4,3.54,1.38,4.48,2.7,2.1,2.92.53,5.49-3.1,5.55-1.12.02-2.24-.17-3.36-.26,0,0,0,.01,0,.02Z"/>
  <path class="cls-1" d="M511.33,210.3c1.25-.57,2.46-1.55,3.75-1.65,5.47-.43,10.96-.64,16.44-.84.85-.03,1.95.14,2.51.67.75.7,1.42,1.83,1.46,2.8.02.53-1.29,1.47-2.1,1.6-1.97.3-4.02.4-6.01.27-5.21-.32-10.41-.8-15.61-1.21-.14-.55-.28-1.09-.43-1.64Z"/>
  <path class="cls-1" d="M85.08,187.16c3.02,0,5.86-.79,7.11,2.78.79,2.25.42,4.1-1.92,4.37-3.27.37-6.66.28-9.92-.18-.83-.12-1.96-2.42-1.85-3.61.11-1.1,1.52-2.44,2.68-2.97,1.24-.57,2.85-.31,3.89-.38Z"/>
  <path class="cls-1" d="M66.11,211.55c-3.51.29-7.01.72-10.53.82-2.68.07-5.38-.19-8.05-.5-.99-.11-1.92-.78-2.87-1.19.72-1.03,1.25-2.34,2.23-3.01.81-.56,2.15-.52,3.24-.48,3.91.17,7.84.31,11.73.78,1.56.19,3.02,1.19,4.53,1.83-.09.58-.18,1.16-.27,1.74Z"/>
  <path class="cls-1" d="M219.14,44.31c-4.01,14.4.26,35.42,6.64,42.01-2.26-14.29-4.45-28.15-6.64-42.01Z"/>
  <path class="cls-1" d="M219.14,44.31c2.19,13.86,4.38,27.71,6.64,42.01-6.37-6.58-10.64-27.61-6.64-42.01Z"/>
</svg>